<svg xmlns="http://www.w3.org/2000/svg" xmlns:xlink="http://www.w3.org/1999/xlink" width="480" zoomAndPan="magnify" viewBox="0 0 360 71.249999" height="95" preserveAspectRatio="xMidYMid meet" version="1.2"><defs><clipPath id="6bb02e43db"><path d="M 10.355469 1 L 44.496094 1 L 44.496094 69.746094 L 10.355469 69.746094 Z M 10.355469 1 "/></clipPath><clipPath id="52409ddf9f"><path d="M 275.433594 27.523438 L 302.152344 27.523438 L 302.152344 64.632812 L 275.433594 64.632812 Z M 275.433594 27.523438 "/></clipPath><clipPath id="0b6e9ed92f"><path d="M 302.09375 27.523438 L 328.8125 27.523438 L 328.8125 64.632812 L 302.09375 64.632812 Z M 302.09375 27.523438 "/></clipPath></defs><g id="627faaefbf"><g clip-rule="nonzero" clip-path="url(#6bb02e43db)"><path style=" stroke:none;fill-rule:evenodd;fill:#000000;fill-opacity:1;" d="M 32.195312 15.804688 C 32.195312 14.921875 33.394531 14.636719 33.820312 15.367188 C 34.402344 15.058594 35.003906 14.773438 35.613281 14.515625 L 35.03125 12.746094 L 35.867188 14.414062 C 36.476562 14.164062 37.101562 13.941406 37.738281 13.742188 C 37.457031 12.664062 39.128906 12.222656 39.421875 13.292969 C 40.472656 13.054688 41.546875 12.890625 42.648438 12.800781 L 44.496094 1.457031 L 44.496094 30.480469 C 41.667969 30.480469 39.375 32.769531 39.375 35.597656 C 39.375 38.425781 41.667969 40.71875 44.496094 40.71875 L 44.496094 69.738281 L 42.648438 58.394531 C 41.546875 58.308594 40.472656 58.140625 39.421875 57.902344 C 39.128906 58.972656 37.457031 58.53125 37.738281 57.453125 C 37.101562 57.253906 36.476562 57.035156 35.867188 56.785156 L 35.03125 58.453125 L 35.613281 56.679688 C 35.003906 56.421875 34.402344 56.136719 33.820312 55.828125 C 33.257812 56.792969 31.765625 55.90625 32.3125 54.957031 C 31.121094 54.203125 30.003906 53.347656 28.972656 52.394531 L 24.421875 55.671875 L 27.699219 51.117188 C 26.746094 50.089844 25.890625 48.972656 25.136719 47.78125 C 24.183594 48.328125 23.300781 46.835938 24.265625 46.273438 C 23.957031 45.691406 23.671875 45.089844 23.414062 44.476562 L 21.640625 45.0625 L 23.308594 44.226562 C 23.058594 43.617188 22.835938 42.992188 22.640625 42.355469 C 21.558594 42.632812 21.121094 40.964844 22.191406 40.671875 C 21.953125 39.621094 21.785156 38.546875 21.699219 37.445312 L 10.355469 35.597656 L 21.699219 33.75 C 21.785156 32.652344 21.953125 31.574219 22.191406 30.523438 C 21.121094 30.230469 21.558594 28.558594 22.640625 28.839844 C 22.835938 28.203125 23.058594 27.582031 23.308594 26.96875 L 21.640625 26.132812 L 23.414062 26.71875 C 23.671875 26.105469 23.957031 25.507812 24.265625 24.925781 C 23.300781 24.359375 24.183594 22.867188 25.136719 23.417969 C 25.890625 22.226562 26.746094 21.105469 27.699219 20.078125 L 24.421875 15.523438 L 28.976562 18.800781 C 30.003906 17.851562 31.121094 16.992188 32.3125 16.238281 C 32.238281 16.113281 32.195312 15.964844 32.195312 15.804688 Z M 44.445312 4.195312 L 40.335938 29.425781 C 41.390625 28.710938 42.640625 28.261719 43.988281 28.171875 Z M 33.890625 15.523438 C 34.199219 16.40625 33.011719 17.066406 32.410156 16.378906 C 31.234375 17.121094 30.132812 17.964844 29.113281 18.902344 L 36.460938 24.191406 C 36.769531 23.972656 37.085938 23.765625 37.414062 23.574219 L 34.597656 18.695312 L 34.808594 18.578125 L 37.621094 23.453125 C 37.886719 23.304688 38.15625 23.160156 38.429688 23.027344 L 35.667969 14.679688 C 35.0625 14.933594 34.46875 15.214844 33.890625 15.523438 Z M 33.890625 55.675781 C 34.199219 54.789062 33.011719 54.128906 32.410156 54.820312 C 31.234375 54.078125 30.132812 53.230469 29.113281 52.292969 L 36.460938 47.003906 C 36.769531 47.222656 37.085938 47.429688 37.414062 47.621094 L 34.597656 52.5 L 34.808594 52.621094 L 37.621094 47.742188 C 37.886719 47.890625 38.15625 48.035156 38.429688 48.167969 L 35.667969 56.519531 C 35.0625 56.261719 34.46875 55.980469 33.890625 55.675781 Z M 32.472656 42.679688 L 27.59375 45.496094 L 27.472656 45.285156 L 32.351562 42.472656 C 32.203125 42.207031 32.058594 41.9375 31.925781 41.660156 L 23.574219 44.425781 C 23.832031 45.03125 24.113281 45.625 24.417969 46.203125 C 25.304688 45.898438 25.964844 47.082031 25.273438 47.679688 C 26.015625 48.859375 26.863281 49.960938 27.800781 50.976562 L 33.089844 43.632812 C 32.871094 43.324219 32.664062 43.007812 32.472656 42.679688 Z M 31.046875 39.324219 L 25.609375 40.785156 L 25.546875 40.550781 L 30.984375 39.09375 L 30.949219 38.949219 L 21.871094 37.472656 C 21.960938 38.554688 22.125 39.613281 22.359375 40.644531 C 23.304688 40.578125 23.621094 41.898438 22.800781 42.296875 C 22.996094 42.925781 23.214844 43.542969 23.460938 44.148438 L 31.320312 40.199219 C 31.21875 39.910156 31.128906 39.621094 31.046875 39.324219 Z M 41 49.109375 L 39.542969 54.546875 L 39.308594 54.484375 L 40.765625 49.046875 C 40.472656 48.964844 40.179688 48.875 39.894531 48.773438 L 35.945312 56.632812 C 36.546875 56.878906 37.167969 57.097656 37.796875 57.292969 C 38.195312 56.472656 39.515625 56.785156 39.449219 57.734375 C 40.480469 57.96875 41.539062 58.132812 42.621094 58.222656 L 41.140625 49.144531 Z M 30.949219 32.246094 L 30.984375 32.101562 L 25.546875 30.644531 L 25.609375 30.414062 L 31.046875 31.871094 C 31.128906 31.574219 31.21875 31.285156 31.320312 30.996094 L 23.460938 27.046875 C 23.214844 27.652344 22.996094 28.269531 22.800781 28.898438 C 23.621094 29.296875 23.304688 30.617188 22.359375 30.550781 C 22.125 31.582031 21.960938 32.644531 21.871094 33.722656 Z M 31.925781 29.535156 C 32.058594 29.257812 32.203125 28.988281 32.351562 28.726562 L 27.472656 25.910156 L 27.59375 25.703125 L 32.472656 28.515625 C 32.664062 28.191406 32.871094 27.871094 33.089844 27.5625 L 27.800781 20.21875 C 26.863281 21.234375 26.015625 22.339844 25.273438 23.515625 C 25.960938 24.113281 25.304688 25.300781 24.417969 24.996094 C 24.113281 25.570312 23.832031 26.164062 23.574219 26.769531 Z M 36.257812 31.378906 C 38.996094 30.933594 38.269531 31.296875 39.230469 30.335938 L 25.925781 17.027344 Z M 33.386719 27.976562 C 32.523438 29.234375 31.867188 30.644531 31.46875 32.160156 L 35.882812 31.441406 Z M 31.023438 35.597656 L 12.773438 35.597656 L 38.320312 39.757812 C 37.519531 38.570312 37.050781 37.140625 37.050781 35.597656 Z M 40.339844 26.984375 L 41.058594 22.570312 C 39.542969 22.96875 38.132812 23.625 36.875 24.492188 Z M 41.140625 22.050781 L 42.621094 12.972656 C 41.539062 13.0625 40.480469 13.226562 39.449219 13.460938 C 39.515625 14.410156 38.195312 14.722656 37.796875 13.902344 C 37.167969 14.097656 36.546875 14.316406 35.945312 14.5625 L 39.894531 22.421875 C 40.179688 22.320312 40.472656 22.230469 40.765625 22.148438 L 39.308594 16.710938 L 39.542969 16.648438 L 41 22.085938 Z M 28.722656 52.15625 L 40.277344 43.835938 C 39.832031 41.101562 40.195312 41.824219 39.230469 40.859375 L 25.925781 54.171875 Z M 41.058594 48.625 L 40.339844 44.210938 L 36.875 46.707031 C 38.132812 47.570312 39.542969 48.226562 41.058594 48.625 Z M 35.882812 39.753906 L 31.46875 39.035156 C 31.867188 40.550781 32.523438 41.960938 33.386719 43.21875 Z M 35.882812 39.753906 "/></g><g style="fill:#000000;fill-opacity:1;"><g transform="translate(42.332797, 52.413039)"><path style="stroke:none" d="M 30.15625 -3.171875 L 30.15625 0 L 5.640625 0 L 5.640625 -34.65625 L 29.40625 -34.65625 L 29.40625 -31.484375 L 9.3125 -31.484375 L 9.3125 -19.15625 L 27.234375 -19.15625 L 27.234375 -16.046875 L 9.3125 -16.046875 L 9.3125 -3.171875 Z M 30.15625 -3.171875 "/></g></g><g style="fill:#000000;fill-opacity:1;"><g transform="translate(75.448293, 52.413039)"><path style="stroke:none" d="M 26.78125 -26.046875 L 15.203125 0 L 11.59375 0 L 0.046875 -26.046875 L 3.71875 -26.046875 L 13.46875 -3.859375 L 23.328125 -26.046875 Z M 26.78125 -26.046875 "/></g></g><g style="fill:#000000;fill-opacity:1;"><g transform="translate(102.277292, 52.413039)"><path style="stroke:none" d="M 27.578125 -11.9375 L 5.796875 -11.9375 C 5.992188 -9.226562 7.03125 -7.039062 8.90625 -5.375 C 10.789062 -3.707031 13.171875 -2.875 16.046875 -2.875 C 17.660156 -2.875 19.144531 -3.160156 20.5 -3.734375 C 21.851562 -4.316406 23.023438 -5.164062 24.015625 -6.28125 L 26 -4.015625 C 24.84375 -2.628906 23.394531 -1.570312 21.65625 -0.84375 C 19.925781 -0.113281 18.019531 0.25 15.9375 0.25 C 13.269531 0.25 10.90625 -0.316406 8.84375 -1.453125 C 6.78125 -2.597656 5.171875 -4.175781 4.015625 -6.1875 C 2.859375 -8.195312 2.28125 -10.472656 2.28125 -13.015625 C 2.28125 -15.554688 2.832031 -17.832031 3.9375 -19.84375 C 5.039062 -21.863281 6.554688 -23.4375 8.484375 -24.5625 C 10.421875 -25.6875 12.59375 -26.25 15 -26.25 C 17.414062 -26.25 19.578125 -25.6875 21.484375 -24.5625 C 23.398438 -23.4375 24.898438 -21.875 25.984375 -19.875 C 27.078125 -17.882812 27.625 -15.597656 27.625 -13.015625 Z M 15 -23.21875 C 12.488281 -23.21875 10.382812 -22.414062 8.6875 -20.8125 C 6.988281 -19.21875 6.023438 -17.132812 5.796875 -14.5625 L 24.265625 -14.5625 C 24.035156 -17.132812 23.066406 -19.21875 21.359375 -20.8125 C 19.660156 -22.414062 17.539062 -23.21875 15 -23.21875 Z M 15 -23.21875 "/></g></g><g style="fill:#000000;fill-opacity:1;"><g transform="translate(132.175286, 52.413039)"><path style="stroke:none" d="M 18.171875 -26.25 C 21.441406 -26.25 24.039062 -25.296875 25.96875 -23.390625 C 27.90625 -21.492188 28.875 -18.734375 28.875 -15.109375 L 28.875 0 L 25.359375 0 L 25.359375 -14.75 C 25.359375 -17.457031 24.679688 -19.519531 23.328125 -20.9375 C 21.972656 -22.363281 20.039062 -23.078125 17.53125 -23.078125 C 14.71875 -23.078125 12.492188 -22.242188 10.859375 -20.578125 C 9.234375 -18.910156 8.421875 -16.609375 8.421875 -13.671875 L 8.421875 0 L 4.90625 0 L 4.90625 -26.046875 L 8.265625 -26.046875 L 8.265625 -21.25 C 9.222656 -22.832031 10.550781 -24.0625 12.25 -24.9375 C 13.957031 -25.8125 15.929688 -26.25 18.171875 -26.25 Z M 18.171875 -26.25 "/></g></g><g style="fill:#000000;fill-opacity:1;"><g transform="translate(165.686779, 52.413039)"><path style="stroke:none" d="M 18.625 -1.578125 C 17.957031 -0.984375 17.132812 -0.53125 16.15625 -0.21875 C 15.1875 0.09375 14.175781 0.25 13.125 0.25 C 10.675781 0.25 8.789062 -0.410156 7.46875 -1.734375 C 6.15625 -3.054688 5.5 -4.921875 5.5 -7.328125 L 5.5 -23.078125 L 0.84375 -23.078125 L 0.84375 -26.046875 L 5.5 -26.046875 L 5.5 -31.734375 L 9.015625 -31.734375 L 9.015625 -26.046875 L 16.9375 -26.046875 L 16.9375 -23.078125 L 9.015625 -23.078125 L 9.015625 -7.53125 C 9.015625 -5.976562 9.398438 -4.796875 10.171875 -3.984375 C 10.953125 -3.171875 12.066406 -2.765625 13.515625 -2.765625 C 14.242188 -2.765625 14.945312 -2.878906 15.625 -3.109375 C 16.300781 -3.347656 16.882812 -3.679688 17.375 -4.109375 Z M 18.625 -1.578125 "/></g></g><g style="fill:#000000;fill-opacity:1;"><g transform="translate(185.783781, 52.413039)"><path style="stroke:none" d=""/></g></g><g style="fill:#000000;fill-opacity:1;"><g transform="translate(198.752773, 52.413039)"><path style="stroke:none" d="M 41.640625 -34.65625 L 41.640625 0 L 38.125 0 L 38.125 -27.734375 L 24.515625 -4.40625 L 22.78125 -4.40625 L 9.15625 -27.578125 L 9.15625 0 L 5.640625 0 L 5.640625 -34.65625 L 8.671875 -34.65625 L 23.71875 -8.96875 L 38.625 -34.65625 Z M 41.640625 -34.65625 "/></g></g><g style="fill:#000000;fill-opacity:1;"><g transform="translate(246.02527, 52.413039)"><path style="stroke:none" d="M 14.015625 -26.25 C 17.410156 -26.25 20.015625 -25.394531 21.828125 -23.6875 C 23.648438 -21.988281 24.5625 -19.472656 24.5625 -16.140625 L 24.5625 0 L 21.1875 0 L 21.1875 -4.0625 C 20.394531 -2.707031 19.234375 -1.648438 17.703125 -0.890625 C 16.171875 -0.128906 14.347656 0.25 12.234375 0.25 C 9.328125 0.25 7.015625 -0.441406 5.296875 -1.828125 C 3.578125 -3.210938 2.71875 -5.046875 2.71875 -7.328125 C 2.71875 -9.535156 3.519531 -11.316406 5.125 -12.671875 C 6.726562 -14.023438 9.28125 -14.703125 12.78125 -14.703125 L 21.046875 -14.703125 L 21.046875 -16.296875 C 21.046875 -18.535156 20.414062 -20.238281 19.15625 -21.40625 C 17.90625 -22.582031 16.078125 -23.171875 13.671875 -23.171875 C 12.015625 -23.171875 10.425781 -22.898438 8.90625 -22.359375 C 7.394531 -21.816406 6.09375 -21.066406 5 -20.109375 L 3.421875 -22.734375 C 4.734375 -23.847656 6.3125 -24.710938 8.15625 -25.328125 C 10.007812 -25.941406 11.960938 -26.25 14.015625 -26.25 Z M 12.78125 -2.53125 C 14.757812 -2.53125 16.457031 -2.984375 17.875 -3.890625 C 19.289062 -4.796875 20.347656 -6.109375 21.046875 -7.828125 L 21.046875 -12.078125 L 12.875 -12.078125 C 8.414062 -12.078125 6.1875 -10.523438 6.1875 -7.421875 C 6.1875 -5.910156 6.765625 -4.71875 7.921875 -3.84375 C 9.078125 -2.96875 10.695312 -2.53125 12.78125 -2.53125 Z M 12.78125 -2.53125 "/></g></g><g style="fill:#000000;fill-opacity:1;"><g transform="translate(328.7579, 52.409039)"><path style="stroke:none" d="M 8.265625 -20.921875 C 9.085938 -22.671875 10.3125 -23.988281 11.9375 -24.875 C 13.570312 -25.769531 15.59375 -26.21875 18 -26.21875 L 18 -22.8125 L 17.171875 -22.859375 C 14.429688 -22.859375 12.285156 -22.015625 10.734375 -20.328125 C 9.179688 -18.648438 8.40625 -16.289062 8.40625 -13.25 L 8.40625 0 L 4.890625 0 L 4.890625 -26.015625 L 8.265625 -26.015625 Z M 8.265625 -20.921875 "/></g></g><g clip-rule="nonzero" clip-path="url(#52409ddf9f)"><path style=" stroke:none;fill-rule:nonzero;fill:#000000;fill-opacity:1;" d="M 302.128906 38.101562 C 302.144531 43.964844 297.371094 48.738281 291.503906 48.738281 L 285.71875 48.738281 C 283.210938 48.738281 281.175781 50.769531 281.175781 53.273438 L 281.175781 59.113281 L 275.644531 64.632812 L 275.644531 54.703125 C 275.644531 48.359375 280.796875 43.214844 287.148438 43.214844 L 291.507812 43.214844 C 294.308594 43.214844 296.589844 40.945312 296.601562 38.152344 C 296.613281 35.34375 294.285156 33.042969 291.472656 33.042969 L 280.96875 33.042969 L 275.4375 27.523438 L 291.457031 27.523438 C 297.320312 27.523438 302.113281 32.246094 302.128906 38.101562 Z M 302.128906 38.101562 "/></g><g clip-rule="nonzero" clip-path="url(#0b6e9ed92f)"><path style=" stroke:none;fill-rule:nonzero;fill:#000000;fill-opacity:1;" d="M 328.792969 38.101562 C 328.804688 43.964844 324.035156 48.738281 318.167969 48.738281 L 312.382812 48.738281 C 309.871094 48.738281 307.839844 50.769531 307.839844 53.273438 L 307.839844 59.113281 L 302.308594 64.632812 L 302.308594 54.703125 C 302.308594 48.359375 307.457031 43.214844 313.8125 43.214844 L 318.167969 43.214844 C 320.96875 43.214844 323.25 40.945312 323.261719 38.152344 C 323.273438 35.34375 320.949219 33.042969 318.136719 33.042969 L 307.632812 33.042969 L 302.101562 27.523438 L 318.117188 27.523438 C 323.980469 27.523438 328.777344 32.246094 328.792969 38.101562 Z M 328.792969 38.101562 "/></g></g></svg>