<svg xmlns="http://www.w3.org/2000/svg" xmlns:xlink="http://www.w3.org/1999/xlink" width="480" zoomAndPan="magnify" viewBox="0 0 360 71.249999" height="95" preserveAspectRatio="xMidYMid meet" version="1.2"><defs><clipPath id="27fb66e5d7"><path d="M 1.878906 1 L 36.019531 1 L 36.019531 69.746094 L 1.878906 69.746094 Z M 1.878906 1 "/></clipPath><clipPath id="a30efc4816"><path d="M 266.957031 27.523438 L 293.675781 27.523438 L 293.675781 64.632812 L 266.957031 64.632812 Z M 266.957031 27.523438 "/></clipPath><clipPath id="515c401633"><path d="M 293.617188 27.523438 L 320.335938 27.523438 L 320.335938 64.632812 L 293.617188 64.632812 Z M 293.617188 27.523438 "/></clipPath></defs><g id="80856315a0"><g clip-rule="nonzero" clip-path="url(#27fb66e5d7)"><path style=" stroke:none;fill-rule:evenodd;fill:#a6a6a6;fill-opacity:1;" d="M 23.71875 15.804688 C 23.71875 14.921875 24.917969 14.636719 25.34375 15.367188 C 25.925781 15.058594 26.527344 14.773438 27.136719 14.515625 L 26.554688 12.746094 L 27.390625 14.414062 C 28 14.164062 28.625 13.941406 29.261719 13.742188 C 28.980469 12.664062 30.652344 12.222656 30.945312 13.292969 C 31.992188 13.054688 33.070312 12.890625 34.171875 12.800781 L 36.019531 1.457031 L 36.019531 30.480469 C 33.191406 30.480469 30.898438 32.769531 30.898438 35.597656 C 30.898438 38.425781 33.191406 40.71875 36.019531 40.71875 L 36.019531 69.738281 L 34.171875 58.394531 C 33.070312 58.308594 31.992188 58.140625 30.945312 57.902344 C 30.652344 58.972656 28.980469 58.53125 29.261719 57.453125 C 28.625 57.253906 28 57.035156 27.390625 56.785156 L 26.554688 58.453125 L 27.136719 56.679688 C 26.527344 56.421875 25.925781 56.136719 25.34375 55.828125 C 24.78125 56.792969 23.285156 55.90625 23.835938 54.957031 C 22.644531 54.203125 21.527344 53.347656 20.496094 52.394531 L 15.941406 55.671875 L 19.222656 51.117188 C 18.269531 50.089844 17.410156 48.972656 16.660156 47.78125 C 15.707031 48.328125 14.824219 46.835938 15.785156 46.273438 C 15.480469 45.691406 15.195312 45.089844 14.9375 44.476562 L 13.164062 45.0625 L 14.832031 44.226562 C 14.582031 43.617188 14.359375 42.992188 14.164062 42.355469 C 13.082031 42.632812 12.644531 40.964844 13.714844 40.671875 C 13.476562 39.621094 13.308594 38.546875 13.222656 37.445312 L 1.878906 35.597656 L 13.222656 33.75 C 13.308594 32.652344 13.476562 31.574219 13.714844 30.523438 C 12.644531 30.230469 13.082031 28.558594 14.164062 28.839844 C 14.359375 28.203125 14.582031 27.582031 14.832031 26.96875 L 13.164062 26.132812 L 14.9375 26.71875 C 15.195312 26.105469 15.480469 25.507812 15.785156 24.925781 C 14.824219 24.359375 15.707031 22.867188 16.660156 23.417969 C 17.410156 22.226562 18.269531 21.105469 19.222656 20.078125 L 15.941406 15.523438 L 20.5 18.800781 C 21.527344 17.851562 22.644531 16.992188 23.835938 16.238281 C 23.761719 16.113281 23.71875 15.964844 23.71875 15.804688 Z M 35.96875 4.195312 L 31.859375 29.425781 C 32.914062 28.710938 34.164062 28.261719 35.507812 28.171875 Z M 25.414062 15.523438 C 25.722656 16.40625 24.535156 17.066406 23.933594 16.378906 C 22.757812 17.121094 21.65625 17.964844 20.636719 18.902344 L 27.984375 24.191406 C 28.292969 23.972656 28.609375 23.765625 28.9375 23.574219 L 26.121094 18.695312 L 26.328125 18.578125 L 29.144531 23.453125 C 29.410156 23.304688 29.679688 23.160156 29.953125 23.027344 L 27.191406 14.679688 C 26.585938 14.933594 25.992188 15.214844 25.414062 15.523438 Z M 25.414062 55.675781 C 25.722656 54.789062 24.535156 54.128906 23.933594 54.820312 C 22.757812 54.078125 21.65625 53.230469 20.636719 52.292969 L 27.984375 47.003906 C 28.292969 47.222656 28.609375 47.429688 28.9375 47.621094 L 26.121094 52.5 L 26.328125 52.621094 L 29.144531 47.742188 C 29.410156 47.890625 29.679688 48.035156 29.953125 48.167969 L 27.191406 56.519531 C 26.585938 56.261719 25.992188 55.980469 25.414062 55.675781 Z M 23.992188 42.679688 L 19.117188 45.496094 L 18.996094 45.285156 L 23.875 42.472656 C 23.726562 42.207031 23.582031 41.9375 23.449219 41.660156 L 15.097656 44.425781 C 15.355469 45.03125 15.636719 45.625 15.941406 46.203125 C 16.828125 45.898438 17.488281 47.082031 16.796875 47.679688 C 17.539062 48.859375 18.386719 49.960938 19.324219 50.976562 L 24.613281 43.632812 C 24.394531 43.324219 24.1875 43.007812 23.992188 42.679688 Z M 22.570312 39.324219 L 17.132812 40.785156 L 17.070312 40.550781 L 22.507812 39.09375 L 22.472656 38.949219 L 13.394531 37.472656 C 13.484375 38.554688 13.644531 39.613281 13.882812 40.644531 C 14.828125 40.578125 15.144531 41.898438 14.324219 42.296875 C 14.515625 42.925781 14.738281 43.542969 14.984375 44.148438 L 22.84375 40.199219 C 22.742188 39.910156 22.652344 39.621094 22.570312 39.324219 Z M 32.523438 49.109375 L 31.066406 54.546875 L 30.832031 54.484375 L 32.289062 49.046875 C 31.996094 48.964844 31.703125 48.875 31.417969 48.773438 L 27.46875 56.632812 C 28.070312 56.878906 28.691406 57.097656 29.320312 57.292969 C 29.71875 56.472656 31.039062 56.785156 30.972656 57.734375 C 32.003906 57.96875 33.0625 58.132812 34.144531 58.222656 L 32.664062 49.144531 Z M 22.472656 32.246094 L 22.507812 32.101562 L 17.070312 30.644531 L 17.132812 30.414062 L 22.570312 31.871094 C 22.652344 31.574219 22.742188 31.285156 22.839844 30.996094 L 14.984375 27.046875 C 14.738281 27.652344 14.515625 28.269531 14.324219 28.898438 C 15.144531 29.296875 14.828125 30.617188 13.882812 30.550781 C 13.644531 31.582031 13.484375 32.644531 13.394531 33.722656 Z M 23.449219 29.535156 C 23.582031 29.257812 23.726562 28.988281 23.875 28.726562 L 18.996094 25.910156 L 19.117188 25.703125 L 23.992188 28.515625 C 24.1875 28.191406 24.394531 27.871094 24.613281 27.5625 L 19.324219 20.21875 C 18.386719 21.234375 17.539062 22.339844 16.796875 23.515625 C 17.484375 24.113281 16.828125 25.300781 15.941406 24.996094 C 15.636719 25.570312 15.355469 26.164062 15.097656 26.769531 Z M 27.78125 31.378906 C 30.519531 30.933594 29.792969 31.296875 30.753906 30.335938 L 17.449219 17.027344 Z M 24.910156 27.976562 C 24.046875 29.234375 23.390625 30.644531 22.992188 32.160156 L 27.40625 31.441406 Z M 22.546875 35.597656 L 4.296875 35.597656 L 29.84375 39.757812 C 29.042969 38.570312 28.574219 37.140625 28.574219 35.597656 Z M 31.863281 26.984375 L 32.582031 22.570312 C 31.066406 22.96875 29.65625 23.625 28.398438 24.492188 Z M 32.664062 22.050781 L 34.144531 12.972656 C 33.0625 13.0625 32.003906 13.226562 30.972656 13.460938 C 31.039062 14.410156 29.71875 14.722656 29.320312 13.902344 C 28.691406 14.097656 28.070312 14.316406 27.46875 14.5625 L 31.417969 22.421875 C 31.703125 22.320312 31.996094 22.230469 32.289062 22.148438 L 30.832031 16.710938 L 31.066406 16.648438 L 32.523438 22.085938 Z M 20.242188 52.15625 L 31.800781 43.835938 C 31.355469 41.101562 31.71875 41.824219 30.753906 40.859375 L 17.449219 54.171875 Z M 32.582031 48.625 L 31.863281 44.210938 L 28.398438 46.707031 C 29.65625 47.570312 31.066406 48.226562 32.582031 48.625 Z M 27.40625 39.753906 L 22.992188 39.035156 C 23.390625 40.550781 24.046875 41.960938 24.910156 43.21875 Z M 27.40625 39.753906 "/></g><g style="fill:#a6a6a6;fill-opacity:1;"><g transform="translate(33.855983, 52.88876)"><path style="stroke:none" d="M 30.15625 -3.171875 L 30.15625 0 L 5.640625 0 L 5.640625 -34.65625 L 29.40625 -34.65625 L 29.40625 -31.484375 L 9.3125 -31.484375 L 9.3125 -19.15625 L 27.234375 -19.15625 L 27.234375 -16.046875 L 9.3125 -16.046875 L 9.3125 -3.171875 Z M 30.15625 -3.171875 "/></g></g><g style="fill:#a6a6a6;fill-opacity:1;"><g transform="translate(66.975623, 52.88876)"><path style="stroke:none" d="M 26.78125 -26.046875 L 15.203125 0 L 11.59375 0 L 0.046875 -26.046875 L 3.71875 -26.046875 L 13.46875 -3.859375 L 23.328125 -26.046875 Z M 26.78125 -26.046875 "/></g></g><g style="fill:#a6a6a6;fill-opacity:1;"><g transform="translate(93.807983, 52.88876)"><path style="stroke:none" d="M 27.578125 -11.9375 L 5.796875 -11.9375 C 5.992188 -9.226562 7.03125 -7.039062 8.90625 -5.375 C 10.789062 -3.707031 13.171875 -2.875 16.046875 -2.875 C 17.660156 -2.875 19.144531 -3.160156 20.5 -3.734375 C 21.851562 -4.316406 23.023438 -5.164062 24.015625 -6.28125 L 26 -4.015625 C 24.84375 -2.628906 23.394531 -1.570312 21.65625 -0.84375 C 19.925781 -0.113281 18.019531 0.25 15.9375 0.25 C 13.269531 0.25 10.90625 -0.316406 8.84375 -1.453125 C 6.78125 -2.597656 5.171875 -4.175781 4.015625 -6.1875 C 2.859375 -8.195312 2.28125 -10.472656 2.28125 -13.015625 C 2.28125 -15.554688 2.832031 -17.832031 3.9375 -19.84375 C 5.039062 -21.863281 6.554688 -23.4375 8.484375 -24.5625 C 10.421875 -25.6875 12.59375 -26.25 15 -26.25 C 17.414062 -26.25 19.578125 -25.6875 21.484375 -24.5625 C 23.398438 -23.4375 24.898438 -21.875 25.984375 -19.875 C 27.078125 -17.882812 27.625 -15.597656 27.625 -13.015625 Z M 15 -23.21875 C 12.488281 -23.21875 10.382812 -22.414062 8.6875 -20.8125 C 6.988281 -19.21875 6.023438 -17.132812 5.796875 -14.5625 L 24.265625 -14.5625 C 24.035156 -17.132812 23.066406 -19.21875 21.359375 -20.8125 C 19.660156 -22.414062 17.539062 -23.21875 15 -23.21875 Z M 15 -23.21875 "/></g></g><g style="fill:#a6a6a6;fill-opacity:1;"><g transform="translate(123.709725, 52.88876)"><path style="stroke:none" d="M 18.171875 -26.25 C 21.441406 -26.25 24.039062 -25.296875 25.96875 -23.390625 C 27.90625 -21.492188 28.875 -18.734375 28.875 -15.109375 L 28.875 0 L 25.359375 0 L 25.359375 -14.75 C 25.359375 -17.457031 24.679688 -19.519531 23.328125 -20.9375 C 21.972656 -22.363281 20.039062 -23.078125 17.53125 -23.078125 C 14.71875 -23.078125 12.492188 -22.242188 10.859375 -20.578125 C 9.234375 -18.910156 8.421875 -16.609375 8.421875 -13.671875 L 8.421875 0 L 4.90625 0 L 4.90625 -26.046875 L 8.265625 -26.046875 L 8.265625 -21.25 C 9.222656 -22.832031 10.550781 -24.0625 12.25 -24.9375 C 13.957031 -25.8125 15.929688 -26.25 18.171875 -26.25 Z M 18.171875 -26.25 "/></g></g><g style="fill:#a6a6a6;fill-opacity:1;"><g transform="translate(157.225419, 52.88876)"><path style="stroke:none" d="M 18.625 -1.578125 C 17.957031 -0.984375 17.132812 -0.53125 16.15625 -0.21875 C 15.1875 0.09375 14.175781 0.25 13.125 0.25 C 10.675781 0.25 8.789062 -0.410156 7.46875 -1.734375 C 6.15625 -3.054688 5.5 -4.921875 5.5 -7.328125 L 5.5 -23.078125 L 0.84375 -23.078125 L 0.84375 -26.046875 L 5.5 -26.046875 L 5.5 -31.734375 L 9.015625 -31.734375 L 9.015625 -26.046875 L 16.9375 -26.046875 L 16.9375 -23.078125 L 9.015625 -23.078125 L 9.015625 -7.53125 C 9.015625 -5.976562 9.398438 -4.796875 10.171875 -3.984375 C 10.953125 -3.171875 12.066406 -2.765625 13.515625 -2.765625 C 14.242188 -2.765625 14.945312 -2.878906 15.625 -3.109375 C 16.300781 -3.347656 16.882812 -3.679688 17.375 -4.109375 Z M 18.625 -1.578125 "/></g></g><g style="fill:#a6a6a6;fill-opacity:1;"><g transform="translate(177.324932, 52.88876)"><path style="stroke:none" d=""/></g></g><g style="fill:#a6a6a6;fill-opacity:1;"><g transform="translate(190.295558, 52.88876)"><path style="stroke:none" d="M 41.640625 -34.65625 L 41.640625 0 L 38.125 0 L 38.125 -27.734375 L 24.515625 -4.40625 L 22.78125 -4.40625 L 9.15625 -27.578125 L 9.15625 0 L 5.640625 0 L 5.640625 -34.65625 L 8.671875 -34.65625 L 23.71875 -8.96875 L 38.625 -34.65625 Z M 41.640625 -34.65625 "/></g></g><g style="fill:#a6a6a6;fill-opacity:1;"><g transform="translate(237.573984, 52.88876)"><path style="stroke:none" d="M 14.015625 -26.25 C 17.410156 -26.25 20.015625 -25.394531 21.828125 -23.6875 C 23.648438 -21.988281 24.5625 -19.472656 24.5625 -16.140625 L 24.5625 0 L 21.1875 0 L 21.1875 -4.0625 C 20.394531 -2.707031 19.234375 -1.648438 17.703125 -0.890625 C 16.171875 -0.128906 14.347656 0.25 12.234375 0.25 C 9.328125 0.25 7.015625 -0.441406 5.296875 -1.828125 C 3.578125 -3.210938 2.71875 -5.046875 2.71875 -7.328125 C 2.71875 -9.535156 3.519531 -11.316406 5.125 -12.671875 C 6.726562 -14.023438 9.28125 -14.703125 12.78125 -14.703125 L 21.046875 -14.703125 L 21.046875 -16.296875 C 21.046875 -18.535156 20.414062 -20.238281 19.15625 -21.40625 C 17.90625 -22.582031 16.078125 -23.171875 13.671875 -23.171875 C 12.015625 -23.171875 10.425781 -22.898438 8.90625 -22.359375 C 7.394531 -21.816406 6.09375 -21.066406 5 -20.109375 L 3.421875 -22.734375 C 4.734375 -23.847656 6.3125 -24.710938 8.15625 -25.328125 C 10.007812 -25.941406 11.960938 -26.25 14.015625 -26.25 Z M 12.78125 -2.53125 C 14.757812 -2.53125 16.457031 -2.984375 17.875 -3.890625 C 19.289062 -4.796875 20.347656 -6.109375 21.046875 -7.828125 L 21.046875 -12.078125 L 12.875 -12.078125 C 8.414062 -12.078125 6.1875 -10.523438 6.1875 -7.421875 C 6.1875 -5.910156 6.765625 -4.71875 7.921875 -3.84375 C 9.078125 -2.96875 10.695312 -2.53125 12.78125 -2.53125 Z M 12.78125 -2.53125 "/></g></g><g style="fill:#a6a6a6;fill-opacity:1;"><g transform="translate(320.281077, 52.409039)"><path style="stroke:none" d="M 8.265625 -20.921875 C 9.085938 -22.671875 10.3125 -23.988281 11.9375 -24.875 C 13.570312 -25.769531 15.59375 -26.21875 18 -26.21875 L 18 -22.8125 L 17.171875 -22.859375 C 14.429688 -22.859375 12.285156 -22.015625 10.734375 -20.328125 C 9.179688 -18.648438 8.40625 -16.289062 8.40625 -13.25 L 8.40625 0 L 4.890625 0 L 4.890625 -26.015625 L 8.265625 -26.015625 Z M 8.265625 -20.921875 "/></g></g><g clip-rule="nonzero" clip-path="url(#a30efc4816)"><path style=" stroke:none;fill-rule:nonzero;fill:#a6a6a6;fill-opacity:1;" d="M 293.59375 38.09375 C 293.609375 43.953125 288.847656 48.722656 282.992188 48.722656 L 277.21875 48.722656 C 274.714844 48.722656 272.6875 50.753906 272.6875 53.257812 L 272.6875 59.09375 L 267.167969 64.609375 L 267.167969 54.683594 C 267.167969 48.347656 272.308594 43.207031 278.648438 43.207031 L 282.996094 43.207031 C 285.789062 43.207031 288.066406 40.9375 288.078125 38.144531 C 288.089844 35.335938 285.769531 33.042969 282.960938 33.042969 L 272.480469 33.042969 L 266.960938 27.523438 L 282.945312 27.523438 C 288.792969 27.523438 293.578125 32.246094 293.59375 38.09375 Z M 293.59375 38.09375 "/></g><g clip-rule="nonzero" clip-path="url(#515c401633)"><path style=" stroke:none;fill-rule:nonzero;fill:#a6a6a6;fill-opacity:1;" d="M 320.257812 38.09375 C 320.273438 43.953125 315.511719 48.722656 309.65625 48.722656 L 303.882812 48.722656 C 301.378906 48.722656 299.347656 50.753906 299.347656 53.257812 L 299.347656 59.09375 L 293.832031 64.609375 L 293.832031 54.683594 C 293.832031 48.347656 298.96875 43.207031 305.308594 43.207031 L 309.65625 43.207031 C 312.453125 43.207031 314.726562 40.9375 314.738281 38.144531 C 314.75 35.335938 312.433594 33.042969 309.625 33.042969 L 299.144531 33.042969 L 293.625 27.523438 L 309.605469 27.523438 C 315.457031 27.523438 320.242188 32.246094 320.257812 38.09375 Z M 320.257812 38.09375 "/></g></g></svg>